# xmcd CD database file
#
# Track frame offsets:
#	150
#	13957
#	46417
#	77192
#	103350
#	128015
#	151590
#	175267
#	205175
#	262925
#	271835
#
# Disc length: 3831 seconds
#
# Revision: 0
# Processed by: cddbd v1.5.1PL2 Copyright (c) Steve Scherf et al.
# Submitted via: CDex 1.51
#
DISCID=8d0ef50b
DTITLE=Mirko Signorile Synerjazz Trio - The Magic Circle
DYEAR=2005
DGENRE=Jazz
TTITLE0=The Magic Circle
TTITLE1=Il Crepuscolo Della Dea
TTITLE2=Dynamic Emotion
TTITLE3=Double Face
TTITLE4=I'm Mad About You
TTITLE5=Always Love
TTITLE6=Jane's Delight
TTITLE7=A New Perspective
TTITLE8=In(tro)spection - (A) Intermezzo Op. 117 N. 2 (B) Caravan
TTITLE9=Nobody Knows Me
TTITLE10=The Magic Circle (Take 2)
EXTD=YEAR: 2005
EXTT0=
EXTT1=
EXTT2=
EXTT3=
EXTT4=
EXTT5=
EXTT6=
EXTT7=
EXTT8=
EXTT9=
EXTT10=
PLAYORDER=
